<?xml version="1.0" encoding="UTF-8" standalone="no"?>
<!-- Uploaded to: SVG Repo, www.svgrepo.com, Generator: SVG Repo Mixer Tools -->

<svg
   fill="#000000"
   width="40"
   height="40"
   viewBox="0 0 1.2 1.2"
   role="img"
   version="1.1"
   id="svg1"
   sodipodi:docname="favicon-dark.svg"
   inkscape:version="1.4 (e7c3feb100, 2024-10-09)"
   inkscape:export-filename="favicon-512.png"
   inkscape:export-xdpi="1228.8"
   inkscape:export-ydpi="1228.8"
   xmlns:inkscape="http://www.inkscape.org/namespaces/inkscape"
   xmlns:sodipodi="http://sodipodi.sourceforge.net/DTD/sodipodi-0.dtd"
   xmlns="http://www.w3.org/2000/svg"
   xmlns:svg="http://www.w3.org/2000/svg"
   xmlns:rdf="http://www.w3.org/1999/02/22-rdf-syntax-ns#"
   xmlns:cc="http://creativecommons.org/ns#"
   xmlns:dc="http://purl.org/dc/elements/1.1/">
  <defs
     id="defs1" />
  <sodipodi:namedview
     id="namedview1"
     pagecolor="#ffffff"
     bordercolor="#000000"
     borderopacity="0.25"
     inkscape:showpageshadow="2"
     inkscape:pageopacity="0.0"
     inkscape:pagecheckerboard="false"
     inkscape:deskcolor="#d1d1d1"
     inkscape:zoom="5.12"
     inkscape:cx="44.53125"
     inkscape:cy="39.550781"
     inkscape:window-width="1280"
     inkscape:window-height="691"
     inkscape:window-x="0"
     inkscape:window-y="0"
     inkscape:window-maximized="1"
     inkscape:current-layer="svg1" />
  <title
     id="title1">Ardour icon</title>
  <path
     d="M 0.6,0.1006 0,1.14 c 0.07250001,0 0.0416,-0.04425 0.07825001,-0.0465 0.03515,0 0.02794999,0.022 0.0522,0.022 0.0423,0 0.01365,-0.141 0.05215,-0.141 0.03325,0 0.024,0.1019 0.0522,0.1019 0.0144,0 0.02605,-0.04055 0.02605,-0.0905 V 0.93865 c 0,-0.0652 0.0117,-0.1182 0.0261,-0.1182 0.0144,0 0.0261,0.0533 0.0261,0.10025 0,0.0589 0.01165,0.1215 0.0261,0.1215 0.0144,0 0.02605,-0.06315 0.02605,-0.14025 v -0.022 c 0,-0.0845 0.0117,-0.15325 0.0261,-0.15325 0.0144,0 0.0261,0.06845 0.0261,0.14835 0,0.08305 0.01165,0.1549 0.0261,0.1549 0.0144,0 0.02605,-0.07185 0.02605,-0.159 0,-0.08685 0.0117,-0.1573 0.0261,-0.1573 0.0144,0 0.0261,0.0712 0.0261,0.16385 0,0.0893 0.01165,0.15735 0.0261,0.15735 0.0144,0 0.02605,-0.06835 0.02605,-0.1435 0,-0.0693 0.0117,-0.13285 0.0261,-0.13285 0.0144,0 0.0261,0.06355 0.0261,0.14185 v 0.0236 c 0,0.07075 0.01165,0.128 0.02605,0.128 0.01445,0 0.0261,-0.0576 0.0261,-0.11495 0,-0.04865 0.0117,-0.09945 0.0261,-0.09945 0.0144,0 0.0261,0.0505 0.0261,0.1125 v 0.0285 c 0,0.0529 0.01165,0.0954 0.02605,0.0954 0.01445,0 0.0261,-0.042 0.0261,-0.0807 0,-0.02945 0.0117,-0.0652 0.0261,-0.0652 0.0144,0 0.0261,0.03545 0.0261,0.07905 V 1.034 c 0,0.0348 0.01165,0.0636 0.02605,0.0636 0.02975,0 0.0225,-0.0864 0.0522,-0.0864 0.0144,0 0.0261,0.0215 0.0261,0.0481 v 0.0228 c 0,0.01925 0.01165,0.03425 0.02605,0.03425 0.0295,0 0.0231,-0.0391 0.0522,-0.0391 0.038,0 0.00985,0.0538 0.05215,0.0538 0.0256,0 0.0213,-0.009 0.0522,-0.009 C 1.1499,1.12205 1.1464,1.14 1.2,1.14 Z"
     id="path1"
     style="stroke-width:1;fill:#ffffff;fill-opacity:1" />
  <metadata
     id="metadata1">
    <rdf:RDF>
      <cc:Work
         rdf:about="">
        <dc:title>Ardour icon</dc:title>
      </cc:Work>
    </rdf:RDF>
  </metadata>
</svg>
